<svg xmlns="http://www.w3.org/2000/svg" width="372.94" height="70.31" viewBox="0 0 372.94 70.31">
  <g id="Altura_Technology" data-name="Altura Technology" transform="translate(-43.302 -528.798)">
    <g id="Altura_Tech" data-name="Altura Tech" transform="translate(184.432 529.358)">
      <path id="Path" d="M193.359,536.122,203.521,573.2c.119.653,0,.832-.6.832h-3.387c-.416,0-.535-.178-.653-.772l-10.5-38.367c-.287-1.645-4.075-2.762-5.117-.075-.121.312-10.828,38.442-10.828,38.442-.178.594-.3.772-.713.772h-3.387c-.6,0-.714-.178-.6-.832l10.518-37.079c1.664-6,2.5-6.834,7.368-6.834C190.982,529.288,191.695,530.12,193.359,536.122Z" transform="translate(-166.719 -529.288)" fill="#0070c2"/>
      <path id="Path-2" data-name="Path" d="M352.061,536.122l10.16,37.079c.119.653,0,.832-.594.832h-3.387c-.416,0-.535-.178-.653-.772l-10.5-38.367c-.287-1.645-4.075-2.762-5.117-.075-.121.312-10.828,38.442-10.828,38.442-.178.594-.3.772-.714.772h-3.386c-.6,0-.714-.178-.6-.832l10.518-37.079c1.664-6,2.5-6.834,7.368-6.834C349.684,529.288,350.4,530.12,352.061,536.122Z" transform="translate(-144.122 -529.288)" fill="#0070c2"/>
      <path id="Path-3" data-name="Path" d="M208.47,529.288c.475,0,.772.238.772.713v39.754H231.7c.475,0,.772.238.772.713v2.5a.69.69,0,0,1-.772.772H205.558a.788.788,0,0,1-.891-.891V530c0-.475.3-.713.772-.713Z" transform="translate(-161.456 -529.288)" fill="#0070c2"/>
      <path id="Path-4" data-name="Path" d="M257.026,529.288a.63.63,0,0,1,.714.713v2.5c0,.535-.238.772-.714.772H243.062v39.694c0,.535-.238.772-.772.772h-2.971c-.535,0-.772-.238-.772-.772V533.269H224.581a.69.69,0,0,1-.772-.772V530c0-.475.3-.713.772-.713Z" transform="translate(-158.73 -529.288)" fill="#0070c2"/>
      <path id="Path-5" data-name="Path" d="M291.975,529.288c.6,0,.773.119.773.713v21.571c0,17.946-3.447,22.462-17.173,22.462S258.4,569.517,258.4,551.571V530c0-.594.178-.713.713-.713h3.031c.594,0,.772.119.772.713v21.571c0,14.737,2.556,18.48,12.658,18.48s12.656-3.744,12.656-18.48V530c0-.594.119-.713.714-.713Z" transform="translate(-153.805 -529.288)" fill="#0070c2"/>
      <path id="Path-6" data-name="Path" d="M324.59,543.371c0,9.746-2.615,12.656-9.983,13.489l10.161,16.162c.416.535.178,1.01-.594,1.01H321.56a2.082,2.082,0,0,1-2.021-1.069l-9.983-15.806-10.4.059v16.044c0,.594-.178.772-.772.772h-3.031c-.594,0-.772-.178-.772-.772v-42.9c0-.594.178-.713.772-.772,3.744-.238,8.5-.3,11.291-.3C320.133,529.288,324.59,531.011,324.59,543.371Zm-25.434-10.1v19.907h7.191c10.815,0,13.726-.417,13.726-9.746,0-9.211-2.911-10.161-13.726-10.161Z" transform="translate(-148.654 -529.288)" fill="#0070c2"/>
      <path id="Path-7" data-name="Path" d="M14.019,1.292V3.3H8.335V18.16H6.016V3.3H.332V1.292Zm9.833,0h12.3V3.359H26.079V8.48h9.312v1.952H26.079V16.15H36.322V18.16H23.852Zm30.1-.459A6.912,6.912,0,0,1,58.923,2.52a5.961,5.961,0,0,1,1.963,3.835H58.659a4.636,4.636,0,0,0-1.51-2.584,4.786,4.786,0,0,0-3.175-.953A5.091,5.091,0,0,0,49.95,4.57q-1.533,1.751-1.533,5.368A7.8,7.8,0,0,0,49.8,14.744a4.834,4.834,0,0,0,4.128,1.843,4.361,4.361,0,0,0,3.847-1.941,7.38,7.38,0,0,0,1.045-2.687h2.228a7.612,7.612,0,0,1-1.975,4.467,7.027,7.027,0,0,1-5.42,2.17,7.153,7.153,0,0,1-4.937-1.78q-2.629-2.354-2.629-7.268a9.285,9.285,0,0,1,1.975-6.12A7.214,7.214,0,0,1,53.952.833Zm17.457.459h2.308v6.97H82.49V1.292H84.8V18.16H82.49V10.271H73.717V18.16H71.409Zm24.45,0h2.7l8.52,13.664V1.292h2.17V18.16h-2.561L98.041,4.507V18.16H95.859ZM127.647.833q4.467,0,6.614,2.871a9.3,9.3,0,0,1,1.676,5.73,10.027,10.027,0,0,1-1.918,6.281,8.521,8.521,0,0,1-12.539.367,9.712,9.712,0,0,1-1.986-6.269,9.972,9.972,0,0,1,1.7-5.856A7.362,7.362,0,0,1,127.647.833Zm.23,15.777a4.757,4.757,0,0,0,4.369-2.164,9.213,9.213,0,0,0,1.349-4.978,7.1,7.1,0,0,0-1.556-4.788,5.311,5.311,0,0,0-4.254-1.814,5.54,5.54,0,0,0-4.271,1.8,7.574,7.574,0,0,0-1.653,5.3,7.742,7.742,0,0,0,1.418,4.725A5.333,5.333,0,0,0,127.876,16.609ZM146.184,1.292h2.285V16.15h8.543V18.16H146.184ZM174.067.833q4.467,0,6.614,2.871a9.3,9.3,0,0,1,1.676,5.73,10.027,10.027,0,0,1-1.918,6.281,8.521,8.521,0,0,1-12.539.367,9.712,9.712,0,0,1-1.986-6.269,9.972,9.972,0,0,1,1.7-5.856A7.362,7.362,0,0,1,174.067.833Zm.23,15.777a4.757,4.757,0,0,0,4.369-2.164,9.213,9.213,0,0,0,1.349-4.978,7.1,7.1,0,0,0-1.556-4.788A5.311,5.311,0,0,0,174.2,2.865a5.54,5.54,0,0,0-4.271,1.8,7.574,7.574,0,0,0-1.653,5.3,7.742,7.742,0,0,0,1.418,4.725A5.333,5.333,0,0,0,174.3,16.609ZM199.9.856a8.665,8.665,0,0,1,4.111.919A5.993,5.993,0,0,1,207.083,6.4h-2.262a4.108,4.108,0,0,0-1.711-2.693,5.889,5.889,0,0,0-3.273-.844,5.128,5.128,0,0,0-3.944,1.757,7.539,7.539,0,0,0-1.6,5.236,8.367,8.367,0,0,0,1.32,4.9,4.882,4.882,0,0,0,4.306,1.889,5.5,5.5,0,0,0,3.783-1.326,5.552,5.552,0,0,0,1.533-4.289h-5.282V9.134h7.406V18.16h-1.47l-.551-2.17a8.663,8.663,0,0,1-2.055,1.768,7.7,7.7,0,0,1-3.824.85,7.449,7.449,0,0,1-5.156-1.941,9.209,9.209,0,0,1-2.354-6.683,9.584,9.584,0,0,1,2.3-6.74A7.3,7.3,0,0,1,199.9.856Zm17.216.436h2.664L224.621,9.4l4.846-8.107h2.675l-6.373,10.07v6.8h-2.285v-6.8Z" transform="translate(-0.332 50.608)"/>
    </g>
    <g id="Mark" transform="translate(43.302 528.798)">
      <circle id="Eli" cx="6.337" cy="6.337" r="6.337" transform="translate(57.367)" fill="#a0d152"/>
      <circle id="Eli-2" data-name="Eli" cx="6.337" cy="6.337" r="6.337" transform="translate(79.45 23.672)" fill="#a0d152"/>
      <circle id="Eli-3" data-name="Eli" cx="6.337" cy="6.337" r="6.337" transform="translate(113.815 57.636)" fill="#a0d152"/>
      <circle id="Eli-4" data-name="Eli" cx="6.337" cy="6.337" r="6.337" transform="translate(23.433 57.636)" fill="#a0d152"/>
      <path id="Path-8" data-name="Path" d="M156.369,575.433a5.828,5.828,0,0,0-8.217-.057l-2.583,2.547a2.165,2.165,0,0,1-3.052-3.058l3.019-2.978a5.81,5.81,0,1,0-8.159-8.274l-12.911,12.732a2.161,2.161,0,0,1-3.007-3.086l.889-.876a5.811,5.811,0,0,0-8.16-8.274L103.148,575a2.166,2.166,0,0,1-3.054-3.056l22.682-22.369a5.811,5.811,0,0,0-8.16-8.274l-16.8,16.565a2.138,2.138,0,0,1-3.012-3.01l5.241-5.168a5.811,5.811,0,0,0-8.16-8.274L45.026,587.624a5.81,5.81,0,0,0,8.159,8.274l35.072-34.587a2.138,2.138,0,0,1,2.968,3.054L79.528,575.9a5.829,5.829,0,0,0-.057,8.217h0a5.828,5.828,0,0,0,8.217.057l5.731-5.651a2.166,2.166,0,0,1,3.014,3.1L90.8,587.175a5.828,5.828,0,0,0-.057,8.217h0a5.829,5.829,0,0,0,8.217.057l15.828-15.61a2.162,2.162,0,0,1,3.043,3.05l-3.986,3.931a5.811,5.811,0,0,0,8.16,8.274l13.814-13.623a2.165,2.165,0,0,1,3.016,3.095l-2.094,2.064a5.811,5.811,0,1,0,8.16,8.274l11.411-11.255A5.828,5.828,0,0,0,156.369,575.433Z" transform="translate(-43.302 -527.255)" fill="#a0d152"/>
    </g>
  </g>
</svg>
