<svg xmlns="http://www.w3.org/2000/svg" width="112" height="112" viewBox="0 0 112 112">
  <g id="Altura_Tech_App_Icon" data-name="Altura Tech App Icon" transform="translate(-1582 -200)">
    <rect id="Rectangle_163841" data-name="Rectangle 163841" width="112" height="112" rx="11" transform="translate(1582 200)" fill="#a0d152" opacity="0.995"/>
    <g id="Mark" transform="translate(1362.724 -5.723)">
      <circle id="Eli" cx="4.085" cy="4.085" r="4.085" transform="translate(271.488 237.063)" fill="#fff"/>
      <circle id="Eli-2" data-name="Eli" cx="4.085" cy="4.085" r="4.085" transform="translate(285.723 252.321)" fill="#fff"/>
      <circle id="Eli-3" data-name="Eli" cx="4.085" cy="4.085" r="4.085" transform="translate(307.875 274.215)" fill="#fff"/>
      <circle id="Eli-4" data-name="Eli" cx="4.085" cy="4.085" r="4.085" transform="translate(249.615 274.215)" fill="#fff"/>
      <path id="Path" d="M307.392,267.022a3.756,3.756,0,0,0-5.3-.037l-1.665,1.642a1.4,1.4,0,0,1-1.967-1.971l1.947-1.92a3.745,3.745,0,0,0-5.26-5.333l-8.322,8.207a1.394,1.394,0,0,1-1.939-1.989l.573-.565a3.745,3.745,0,1,0-5.26-5.333l-7.116,7.018a1.4,1.4,0,0,1-1.969-1.971l14.621-14.418a3.745,3.745,0,1,0-5.259-5.334l-10.827,10.678a1.378,1.378,0,0,1-1.942-1.94l3.378-3.332a3.746,3.746,0,1,0-5.26-5.334L235.621,274.88a3.745,3.745,0,1,0,5.259,5.333l22.608-22.295a1.378,1.378,0,0,1,1.913,1.969l-7.539,7.435a3.758,3.758,0,0,0-.037,5.3h0a3.758,3.758,0,0,0,5.3.037l3.694-3.644a1.4,1.4,0,0,1,1.943,2l-3.632,3.581a3.758,3.758,0,0,0-.037,5.3h0a3.757,3.757,0,0,0,5.3.036l10.2-10.061a1.394,1.394,0,0,1,1.962,1.966l-2.569,2.533a3.746,3.746,0,1,0,5.26,5.334l8.9-8.782a1.4,1.4,0,0,1,1.944,2l-1.35,1.331A3.745,3.745,0,1,0,300,279.573l7.357-7.254A3.757,3.757,0,0,0,307.392,267.022Z" transform="translate(0 1.097)" fill="#fff"/>
    </g>
  </g>
</svg>
